<svg xmlns="http://www.w3.org/2000/svg" width="78" height="78" viewBox="0 0 78 78">
    <g fill="none" fill-rule="evenodd">
        <g fill="#000" fill-rule="nonzero">
            <g>
                <path d="M48.446 32.273c-2.561 0-5.05.496-7.394 1.476-.776.324-1.143 1.216-.819 1.993.325.776 1.217 1.142 1.993.818 1.971-.823 4.064-1.24 6.22-1.24 8.905 0 16.149 7.244 16.149 16.148S57.35 67.616 48.446 67.616c-8.904 0-16.148-7.244-16.148-16.148 0-2.153.416-4.243 1.237-6.211.324-.777-.043-1.669-.82-1.993-.776-.323-1.668.044-1.992.82-.977 2.342-1.472 4.826-1.472 7.384 0 10.584 8.61 19.195 19.195 19.195s19.196-8.61 19.196-19.195c0-10.584-8.611-19.195-19.196-19.195z" transform="translate(-681 -1382) translate(681 1382)"/>
                <path d="M48.446 63.96c6.888 0 12.492-5.604 12.492-12.492 0-6.888-5.604-12.492-12.492-12.492-6.888 0-12.492 5.604-12.492 12.492 0 6.888 5.604 12.492 12.492 12.492zm0-21.937c5.208 0 9.446 4.237 9.446 9.445s-4.238 9.445-9.446 9.445c-5.208 0-9.445-4.237-9.445-9.445s4.237-9.445 9.445-9.445z" transform="translate(-681 -1382) translate(681 1382)"/>
                <path d="M70.274 24.96h-4.635L60.32 15.96c-.274-.464-.772-.749-1.311-.749H37.884c-.54 0-1.038.285-1.312.749l-5.319 9.001h-8.706v-1.828c0-3.024-2.46-5.484-5.485-5.484-3.024 0-5.484 2.46-5.484 5.484v1.828H7.726C3.466 24.96 0 28.426 0 32.687v37.562c0 4.26 3.466 7.727 7.726 7.727h62.548c4.26 0 7.726-3.466 7.726-7.727V32.687c0-4.26-3.466-7.727-7.726-7.727zm-31.52-6.703h19.385L62.1 24.96H34.792l3.961-6.703zm-24.129 4.875c0-1.344 1.094-2.437 2.438-2.437 1.343 0 2.437 1.093 2.437 2.437v1.828h-4.875v-1.828zm60.328 47.117c0 2.58-2.099 4.68-4.68 4.68H7.727c-2.58 0-4.68-2.1-4.68-4.68V32.687c0-2.58 2.1-4.68 4.68-4.68h62.548c2.58 0 4.68 2.1 4.68 4.68v37.562z" transform="translate(-681 -1382) translate(681 1382)"/>
                <path d="M48.446 48.497c1.638 0 2.97 1.333 2.97 2.971 0 .841.683 1.523 1.524 1.523.842 0 1.524-.682 1.524-1.523 0-3.318-2.7-6.018-6.018-6.018-.841 0-1.523.683-1.523 1.524s.682 1.523 1.523 1.523zM48.446 11.202c.842 0 1.524-.682 1.524-1.523V1.548c0-.842-.682-1.524-1.524-1.524-.841 0-1.523.682-1.523 1.524v8.13c0 .842.682 1.524 1.523 1.524zM55.696 11.202c.39 0 .78-.149 1.077-.446l5.59-5.59c.594-.595.594-1.56 0-2.154-.596-.595-1.56-.595-2.155 0l-5.59 5.59c-.595.594-.595 1.559 0 2.154.298.297.688.446 1.078.446zM40.12 10.756c.297.297.687.446 1.077.446.39 0 .78-.149 1.077-.446.595-.595.595-1.56 0-2.155l-5.59-5.59c-.594-.594-1.559-.594-2.154 0-.595.596-.595 1.56 0 2.155l5.59 5.59zM21.023 37.452h-7.921c-.842 0-1.524.683-1.524 1.524s.682 1.523 1.524 1.523h7.921c.842 0 1.524-.682 1.524-1.523 0-.842-.682-1.524-1.524-1.524zM35.947 40.5c.4 0 .794-.164 1.077-.447.283-.284.446-.675.446-1.077 0-.401-.163-.794-.446-1.077-.283-.284-.676-.447-1.077-.447-.4 0-.794.163-1.077.447-.285.283-.446.676-.446 1.077 0 .4.161.793.446 1.077.283.283.675.446 1.077.446z" transform="translate(-681 -1382) translate(681 1382)"/>
            </g>
        </g>
    </g>
</svg>
