<svg xmlns="http://www.w3.org/2000/svg" width="78" height="78" viewBox="0 0 78 78">
    <g fill="none" fill-rule="evenodd">
        <g fill="#000" fill-rule="nonzero">
            <g>
                <path d="M35.852 52.8c.593-.594.593-1.556 0-2.15-.594-.593-1.557-.593-2.151 0-.593.594-.593 1.556 0 2.15.594.593 1.557.593 2.15 0zM28.653 16.72c0 9.22 7.5 16.721 16.72 16.721 9.22 0 16.72-7.501 16.72-16.72C62.094 7.5 54.594 0 45.374 0c-9.22 0-16.72 7.5-16.72 16.72zm30.401 0c0 7.544-6.137 13.681-13.68 13.681-7.544 0-13.681-6.137-13.681-13.68 0-7.544 6.137-13.68 13.68-13.68 7.544 0 13.681 6.136 13.681 13.68z" transform="translate(-1007 -1388) translate(1007 1388)"/>
                <path d="M17.585 77.398c.589.594 1.548.6 2.145.013l7.37-7.26c1.251-1.252 1.632-3.106 1.082-4.717l1.585-1.53c.853-.824 1.977-1.278 3.165-1.278h20.207c3.585 0 6.974-1.377 9.542-3.877.106-.102-.802.967 13.786-16.468 2.164-2.56 1.84-6.404-.722-8.57-2.546-2.146-6.36-1.838-8.53.678l-8.97 9.22c-1.132-1.395-2.86-2.264-4.726-2.264H36.57c-2.412-1.009-4.971-1.52-7.612-1.52-7.32 0-13.71 3.381-17.14 9.72-1.446-.274-2.97.163-4.066 1.26L.52 58.056c-.59.592-.592 1.55-.003 2.144l17.068 17.197zm11.372-34.533c2.328 0 4.579.469 6.691 1.393.193.084.4.128.61.128h17.261c1.648 0 3.04 1.344 3.04 3.04 0 1.676-1.363 3.04-3.04 3.04H41.117c-.839 0-1.52.68-1.52 1.52s.681 1.52 1.52 1.52H53.52c3.353 0 6.08-2.728 6.08-6.08 0-.268-.019-.533-.053-.795 8.677-8.92 9.9-10.172 9.952-10.235 1.084-1.279 3.007-1.44 4.286-.362 1.28 1.083 1.443 3.005.357 4.29l-13.634 16.3c-1.991 1.91-4.605 2.962-7.368 2.962H32.932c-1.98 0-3.855.758-5.277 2.131l-1.292 1.247-11.908-11.908c2.783-5.221 8.006-8.19 14.502-8.19zM9.902 52.953c.501-.502 1.271-.592 1.882-.214.263.16-.492-.528 13.166 13.112.608.607.575 1.575.008 2.142l-6.282 6.19L3.74 59.132l6.162-6.18zM43.55 7.6v1.782c-1.77.627-3.04 2.317-3.04 4.299 0 2.514 2.045 4.56 4.56 4.56.837 0 1.52.682 1.52 1.52s-.683 1.52-1.52 1.52c-.65 0-1.351-.408-1.974-1.15-.54-.643-1.5-.725-2.142-.186-.643.54-.726 1.5-.185 2.142.812.966 1.768 1.64 2.78 1.98v1.774c0 .84.681 1.52 1.52 1.52.84 0 1.52-.68 1.52-1.52V24.06c1.77-.628 3.04-2.318 3.04-4.3 0-2.514-2.045-4.56-4.56-4.56-.838 0-1.52-.681-1.52-1.52 0-.837.682-1.52 1.52-1.52.54 0 1.107.275 1.644.795.604.584 1.566.568 2.15-.035.584-.604.568-1.566-.035-2.15-.772-.746-1.544-1.168-2.239-1.399v-1.77c0-.84-.68-1.52-1.52-1.52-.839 0-1.52.68-1.52 1.52z" transform="translate(-1007 -1388) translate(1007 1388)"/>
            </g>
        </g>
    </g>
</svg>
