<svg xmlns="http://www.w3.org/2000/svg" width="78" height="78" viewBox="0 0 78 78">
    <g fill="none" fill-rule="evenodd">
        <g fill="#000" fill-rule="nonzero">
            <g>
                <path d="M1.297 10.378c2.412 0 4.425-1.66 5.005-3.892h23.175c-.45.772-1.278 1.298-2.234 1.298h-1.297c-.717 0-1.297.581-1.297 1.297v4.149l-10.66 2.369c-.371.081-.688.324-.867.66-.178.336-.197.734-.057 1.087l.581 1.452-10.158 3.318c-.51.166-.864.628-.892 1.163L0 71.279c-.02.355.11.703.354.962.246.261.587.408.942.408h5.19v3.892c0 .716.58 1.297 1.297 1.297h36.324c.718 0 1.297-.581 1.297-1.297v-3.892h5.19c.355 0 .696-.147.941-.405.246-.26.374-.607.355-.963L49.488 26.84l2.121-5.581 9.413 3.051 2.473 45.744h-7.658l1.243-31.083-2.592-.104-1.298 32.432c-.014.353.117.697.361.951.244.255.583.399.935.399h10.379c.355 0 .697-.147.942-.405.245-.26.373-.607.354-.963l-2.45-45.335h6.343v25.946h-3.892v2.594h5.19c.717 0 1.297-.58 1.297-1.297V25.946h3.892c.45 0 .866-.234 1.104-.615.237-.383.258-.86.057-1.262l-3.892-7.784c-.175-.349-.498-.6-.88-.686l-10.66-2.37v-2.85c2.412 0 4.425-1.661 5.005-3.893h4.26c.58 2.232 2.594 3.892 5.006 3.892.717 0 1.297-.58 1.297-1.297V1.297C77.838.581 77.258 0 76.54 0c-2.412 0-4.426 1.66-5.005 3.892h-4.26C66.695 1.66 64.681 0 62.27 0h-3.892v2.595h3.892c.956 0 1.784.525 2.234 1.297H46.518C45.938 1.66 43.925 0 41.514 0h-3.892v2.595h3.892c.956 0 1.783.525 2.233 1.297H32.248C31.668 1.66 29.655 0 27.243 0h-3.892v2.595h3.892c.956 0 1.784.525 2.234 1.297H6.302C5.722 1.66 3.71 0 1.297 0 .58 0 0 .581 0 1.297v7.784c0 .716.58 1.297 1.298 1.297zm73.946-7.434v4.492c-.776-.45-1.297-1.288-1.297-2.247 0-.959.521-1.797 1.297-2.245zM32.248 6.486h11.5c-.45.772-1.278 1.298-2.234 1.298h-1.298c-.717 0-1.297.581-1.297 1.297v5.19c0 .608.422 1.134 1.016 1.265l3.513.781-1.742 3.63-3.47-1.125.59-1.476c.14-.353.121-.751-.056-1.087-.18-.337-.496-.579-.867-.66l-10.66-2.37v-2.85c2.412 0 4.425-1.661 5.005-3.893zM25.946 15.6L35.85 17.8l-3.974 9.932-3.663-2.93L33.1 21.87c.342-.205.57-.558.62-.954.049-.397-.087-.792-.37-1.075l-2.595-2.595-1.834 1.835 1.42 1.419-4.396 2.636-4.395-2.637 1.42-1.42-1.834-1.834-2.595 2.595c-.283.282-.419.678-.37 1.075.049.397.278.749.62.954L23.68 24.8l-3.664 2.931-3.974-9.932 9.904-2.2zM9.08 72.649h2.595c.353 0 .69-.144.935-.399.245-.254.375-.598.36-.95l-1.297-32.433-2.592.104 1.243 31.083H2.667L5.14 24.31l9.473-3.096 3.643 9.106c.153.382.476.668.874.772.398.108.82.016 1.142-.241l4.378-3.503v47.896H9.08V72.65zm32.486-2.595l1.243-31.083-2.592-.104-1.298 32.432c-.014.353.117.697.36.951.245.255.583.399.936.399h2.595v2.594H27.243V27.348l4.379 3.503c.233.186.519.284.81.284.11 0 .222-.014.331-.043.399-.105.722-.39.875-.772l3.633-9.082 9.482 3.075 2.472 45.741h-7.658zm6.923-47.891c-.03-.013-.057-.035-.09-.045l-4.205-1.364 1.853-3.86 4.098.911-1.656 4.358zm13.78-14.38h-1.297c-.717 0-1.297.582-1.297 1.298v4.149L54.854 14.3l.563 2.533 5.556-1.235 10.79 2.398 2.679 5.354H63.57l-.004-.07c-.028-.535-.385-.999-.895-1.163l-10.138-3.286.572-1.505c.135-.352.108-.745-.071-1.077-.18-.33-.493-.568-.86-.65l-10.66-2.37v-2.852c2.411 0 4.425-1.66 5.004-3.892h17.986c-.45.772-1.278 1.298-2.234 1.298zM2.595 2.944c.775.45 1.297 1.287 1.297 2.246 0 .959-.522 1.797-1.297 2.246V2.944z" transform="translate(-355 -1389) translate(355 1389)"/>
                <path d="M45.405 64.865L48 64.865 48 67.459 45.405 67.459zM3.892 64.865L6.486 64.865 6.486 67.459 3.892 67.459zM19.459 36.324L22.054 36.324 22.054 38.919 19.459 38.919zM19.459 49.297L22.054 49.297 22.054 51.892 19.459 51.892zM19.459 62.27L22.054 62.27 22.054 64.865 19.459 64.865z" transform="translate(-355 -1389) translate(355 1389)"/>
            </g>
        </g>
    </g>
</svg>
